<svg width="500" height="60" viewBox="0 0 500 60" fill="none" xmlns="http://www.w3.org/2000/svg">
<path d="M0 12C0 5.37258 5.37258 0 12 0H460C482.091 0 500 17.9086 500 40V60H0V12Z" fill="#5A6DED"/>
<path fill-rule="evenodd" clip-rule="evenodd" d="M460 21.0645C460 26.9785 455.745 31.8986 450.129 32.9301V43L447.113 39.6539L444.097 43L441.081 39.6539L438.065 43L435.048 39.6539L432.032 43L429.016 39.6539L426 43V21.585C426.402 18.9081 428.413 16.6774 430.826 16.6774H436.693C438.448 12.1835 442.82 9 447.935 9C454.599 9 460 14.4015 460 21.0645ZM430.826 19.912H435.925C435.889 20.2913 435.871 20.6758 435.871 21.0645C435.871 21.8136 435.939 22.5468 436.07 23.2581H432.334V24.9311H436.504C436.7 25.5097 436.938 26.0686 437.215 26.6042H432.334V28.2772H438.263C438.682 28.8372 439.148 29.3597 439.655 29.8387H432.334V31.5118H441.898C443.56 32.4745 445.473 33.0519 447.515 33.1218V34.8578L444.499 38.2039L441.483 34.8578L438.467 38.2039L435.451 34.8578L432.434 38.2039L429.418 34.8578V31.5118V21.585C429.418 20.6927 430.022 20.0235 430.826 19.912ZM446.839 14.4839H449.032V19.9677H454.516V22.1613H449.032V27.6452H446.839V22.1613H441.355V19.9677H446.839V14.4839Z" fill="white"/>
<path d="M46.08 37.14C44.92 37.14 43.88 36.9067 42.96 36.44C42.04 35.9733 41.3133 35.32 40.78 34.48L42.84 33.2C43.1733 33.7067 43.6067 34.1133 44.14 34.42C44.6733 34.7133 45.3 34.86 46.02 34.86C46.8733 34.86 47.5067 34.6733 47.92 34.3C48.3467 33.9267 48.56 33.4333 48.56 32.82C48.56 32.42 48.4667 32.0733 48.28 31.78C48.1067 31.4733 47.84 31.24 47.48 31.08C47.12 30.9067 46.6667 30.82 46.12 30.82H44.42V28.72H46.14C46.5667 28.72 46.9267 28.6467 47.22 28.5C47.5267 28.34 47.7533 28.1267 47.9 27.86C48.06 27.5933 48.14 27.2867 48.14 26.94C48.14 26.58 48.0533 26.2667 47.88 26C47.72 25.7333 47.4733 25.5267 47.14 25.38C46.82 25.22 46.4067 25.14 45.9 25.14C45.18 25.14 44.56 25.2867 44.04 25.58C43.52 25.86 43.12 26.2333 42.84 26.7L40.86 25.3C41.3933 24.5133 42.0733 23.88 42.9 23.4C43.74 22.92 44.78 22.68 46.02 22.68C47.0067 22.68 47.8533 22.8333 48.56 23.14C49.2667 23.4333 49.8133 23.8667 50.2 24.44C50.6 25.0133 50.8 25.7067 50.8 26.52C50.8 27.1733 50.64 27.7867 50.32 28.36C50.0133 28.92 49.52 29.3533 48.84 29.66C49.64 29.9 50.2533 30.3267 50.68 30.94C51.12 31.5533 51.34 32.2667 51.34 33.08C51.34 33.96 51.1067 34.7067 50.64 35.32C50.1867 35.92 49.5667 36.3733 48.78 36.68C47.9933 36.9867 47.0933 37.14 46.08 37.14ZM52.6094 33.9C52.6094 33.22 52.796 32.6267 53.1694 32.12C53.556 31.6 54.0894 31.2 54.7694 30.92C55.4494 30.64 56.2294 30.5 57.1094 30.5C57.5494 30.5 57.996 30.5333 58.4494 30.6C58.9027 30.6667 59.296 30.7733 59.6294 30.92V30.36C59.6294 29.6933 59.4294 29.18 59.0294 28.82C58.6427 28.46 58.0627 28.28 57.2894 28.28C56.716 28.28 56.1694 28.38 55.6494 28.58C55.1294 28.78 54.5827 29.0733 54.0094 29.46L53.1494 27.7C53.8427 27.2467 54.5494 26.9067 55.2694 26.68C56.0027 26.4533 56.7694 26.34 57.5694 26.34C59.0627 26.34 60.2227 26.7133 61.0494 27.46C61.8894 28.2067 62.3094 29.2733 62.3094 30.66V34C62.3094 34.28 62.356 34.48 62.4494 34.6C62.556 34.72 62.7227 34.7933 62.9494 34.82V37C62.7094 37.04 62.4894 37.0733 62.2894 37.1C62.1027 37.1267 61.9427 37.14 61.8094 37.14C61.276 37.14 60.8694 37.02 60.5894 36.78C60.3227 36.54 60.156 36.2467 60.0894 35.9L60.0294 35.36C59.576 35.9467 59.0094 36.4 58.3294 36.72C57.6494 37.04 56.956 37.2 56.2494 37.2C55.556 37.2 54.9294 37.06 54.3694 36.78C53.8227 36.4867 53.3894 36.0933 53.0694 35.6C52.7627 35.0933 52.6094 34.5267 52.6094 33.9ZM59.1294 34.44C59.276 34.28 59.396 34.12 59.4894 33.96C59.5827 33.8 59.6294 33.6533 59.6294 33.52V32.46C59.3094 32.3267 58.9627 32.2267 58.5894 32.16C58.216 32.08 57.8627 32.04 57.5294 32.04C56.836 32.04 56.2627 32.1933 55.8094 32.5C55.3694 32.7933 55.1494 33.1867 55.1494 33.68C55.1494 33.9467 55.2227 34.2 55.3694 34.44C55.516 34.68 55.7294 34.8733 56.0094 35.02C56.2894 35.1667 56.6227 35.24 57.0094 35.24C57.4094 35.24 57.8027 35.1667 58.1894 35.02C58.576 34.86 58.8894 34.6667 59.1294 34.44ZM64.8138 37V26.52H71.7538V28.86H67.4938V37H64.8138ZM79.5703 37.2C78.757 37.2 78.037 37.02 77.4103 36.66C76.797 36.2867 76.317 35.7867 75.9703 35.16V41.26H73.2903V26.52H75.6303V28.32C76.0303 27.7067 76.537 27.2267 77.1503 26.88C77.7636 26.52 78.4636 26.34 79.2503 26.34C79.957 26.34 80.6036 26.48 81.1903 26.76C81.7903 27.04 82.3103 27.4333 82.7503 27.94C83.1903 28.4333 83.5303 29.0067 83.7703 29.66C84.0236 30.3 84.1503 30.9933 84.1503 31.74C84.1503 32.7533 83.9503 33.6733 83.5503 34.5C83.1636 35.3267 82.6236 35.9867 81.9303 36.48C81.2503 36.96 80.4636 37.2 79.5703 37.2ZM78.6703 34.92C79.0836 34.92 79.457 34.8333 79.7903 34.66C80.1236 34.4867 80.4103 34.2533 80.6503 33.96C80.9036 33.6533 81.0903 33.3133 81.2103 32.94C81.3436 32.5533 81.4103 32.1533 81.4103 31.74C81.4103 31.3 81.337 30.8933 81.1903 30.52C81.057 30.1467 80.857 29.82 80.5903 29.54C80.3236 29.2467 80.0103 29.02 79.6503 28.86C79.3036 28.7 78.9236 28.62 78.5103 28.62C78.257 28.62 77.997 28.6667 77.7303 28.76C77.477 28.84 77.2303 28.96 76.9903 29.12C76.7503 29.28 76.537 29.4667 76.3503 29.68C76.177 29.8933 76.0503 30.1267 75.9703 30.38V32.84C76.1303 33.2267 76.3436 33.58 76.6103 33.9C76.8903 34.22 77.2103 34.4733 77.5703 34.66C77.9303 34.8333 78.297 34.92 78.6703 34.92ZM87.1745 41.52C86.8945 41.52 86.6079 41.4867 86.3145 41.42C86.0345 41.3533 85.7079 41.2533 85.3345 41.12L85.8545 39C86.0545 39.0933 86.2412 39.16 86.4145 39.2C86.6012 39.24 86.7679 39.26 86.9145 39.26C87.2479 39.26 87.5412 39.14 87.7945 38.9C88.0612 38.66 88.2745 38.2933 88.4345 37.8L88.7545 36.94L84.5145 26.52H87.2945L90.1145 34.26L92.5945 26.52H95.1545L90.8745 38.5C90.6479 39.14 90.3479 39.68 89.9745 40.12C89.6012 40.5733 89.1745 40.92 88.6945 41.16C88.2145 41.4 87.7079 41.52 87.1745 41.52ZM100.351 37.16C99.2306 37.16 98.2973 36.96 97.5506 36.56C96.804 36.16 96.2173 35.6067 95.7906 34.9L97.9506 33.92C98.1773 34.2667 98.4706 34.54 98.8306 34.74C99.204 34.9267 99.664 35.02 100.211 35.02C100.837 35.02 101.317 34.9 101.651 34.66C101.997 34.4067 102.171 34.08 102.171 33.68C102.171 33.3067 102.031 33.0067 101.751 32.78C101.471 32.5533 101.057 32.44 100.511 32.44H99.4306V30.78H100.531C100.784 30.78 100.997 30.7333 101.171 30.64C101.357 30.5333 101.497 30.3933 101.591 30.22C101.697 30.0467 101.751 29.8467 101.751 29.62C101.751 29.2867 101.617 29.0133 101.351 28.8C101.097 28.5867 100.691 28.48 100.131 28.48C99.664 28.48 99.2773 28.5667 98.9706 28.74C98.6773 28.9133 98.4306 29.1733 98.2306 29.52L96.2106 28.44C96.584 27.7867 97.1173 27.2733 97.8106 26.9C98.5173 26.5267 99.3373 26.34 100.271 26.34C101.004 26.34 101.657 26.4533 102.231 26.68C102.817 26.9067 103.277 27.2333 103.611 27.66C103.944 28.0867 104.111 28.62 104.111 29.26C104.111 29.7133 103.997 30.1533 103.771 30.58C103.557 31.0067 103.204 31.32 102.711 31.52C103.351 31.7067 103.831 32.0267 104.151 32.48C104.484 32.9333 104.651 33.4667 104.651 34.08C104.651 34.7467 104.464 35.3133 104.091 35.78C103.717 36.2333 103.211 36.58 102.571 36.82C101.931 37.0467 101.191 37.16 100.351 37.16ZM106.533 37V26.54H109.213V33.42L113.913 26.52H116.353V37H113.673V30.28L109.033 37H106.533ZM121.218 37V28.86H117.898V26.52H127.238V28.86H123.898V37H121.218ZM133.6 37.2C132.76 37.2 132 37.06 131.32 36.78C130.64 36.4867 130.06 36.0933 129.58 35.6C129.1 35.0933 128.726 34.52 128.46 33.88C128.206 33.2267 128.08 32.54 128.08 31.82C128.08 30.82 128.3 29.9067 128.74 29.08C129.193 28.2533 129.833 27.5933 130.66 27.1C131.5 26.5933 132.486 26.34 133.62 26.34C134.766 26.34 135.746 26.5933 136.56 27.1C137.373 27.5933 137.993 28.2533 138.42 29.08C138.86 29.8933 139.08 30.7733 139.08 31.72C139.08 31.88 139.073 32.0467 139.06 32.22C139.046 32.38 139.033 32.5133 139.02 32.62H130.92C130.973 33.1533 131.126 33.62 131.38 34.02C131.646 34.42 131.98 34.7267 132.38 34.94C132.793 35.14 133.233 35.24 133.7 35.24C134.233 35.24 134.733 35.1133 135.2 34.86C135.68 34.5933 136.006 34.2467 136.18 33.82L138.48 34.46C138.226 34.9933 137.86 35.4667 137.38 35.88C136.913 36.2933 136.36 36.62 135.72 36.86C135.08 37.0867 134.373 37.2 133.6 37.2ZM130.86 30.92H136.34C136.286 30.3867 136.133 29.9267 135.88 29.54C135.64 29.14 135.32 28.8333 134.92 28.62C134.52 28.3933 134.073 28.28 133.58 28.28C133.1 28.28 132.66 28.3933 132.26 28.62C131.873 28.8333 131.553 29.14 131.3 29.54C131.06 29.9267 130.913 30.3867 130.86 30.92ZM151.357 37V33.24C150.957 33.4133 150.55 33.54 150.137 33.62C149.737 33.7 149.277 33.74 148.757 33.74C147.65 33.74 146.784 33.4467 146.157 32.86C145.53 32.26 145.217 31.3867 145.217 30.24V26.52H147.897V29.88C147.897 30.5067 148.03 30.9667 148.297 31.26C148.577 31.5533 149.004 31.7 149.577 31.7C149.897 31.7 150.217 31.6667 150.537 31.6C150.857 31.5333 151.13 31.44 151.357 31.32V26.52H154.057V37H151.357ZM161.353 37.2C160.513 37.2 159.753 37.06 159.073 36.78C158.393 36.4867 157.813 36.0933 157.333 35.6C156.853 35.0933 156.48 34.52 156.213 33.88C155.96 33.2267 155.833 32.54 155.833 31.82C155.833 30.82 156.053 29.9067 156.493 29.08C156.947 28.2533 157.587 27.5933 158.413 27.1C159.253 26.5933 160.24 26.34 161.373 26.34C162.52 26.34 163.5 26.5933 164.313 27.1C165.127 27.5933 165.747 28.2533 166.173 29.08C166.613 29.8933 166.833 30.7733 166.833 31.72C166.833 31.88 166.827 32.0467 166.813 32.22C166.8 32.38 166.787 32.5133 166.773 32.62H158.673C158.727 33.1533 158.88 33.62 159.133 34.02C159.4 34.42 159.733 34.7267 160.133 34.94C160.547 35.14 160.987 35.24 161.453 35.24C161.987 35.24 162.487 35.1133 162.953 34.86C163.433 34.5933 163.76 34.2467 163.933 33.82L166.233 34.46C165.98 34.9933 165.613 35.4667 165.133 35.88C164.667 36.2933 164.113 36.62 163.473 36.86C162.833 37.0867 162.127 37.2 161.353 37.2ZM158.613 30.92H164.093C164.04 30.3867 163.887 29.9267 163.633 29.54C163.393 29.14 163.073 28.8333 162.673 28.62C162.273 28.3933 161.827 28.28 161.333 28.28C160.853 28.28 160.413 28.3933 160.013 28.62C159.627 28.8333 159.307 29.14 159.053 29.54C158.813 29.9267 158.667 30.3867 158.613 30.92ZM168.466 37V26.52H171.146V30.48H172.046L174.886 26.52H177.806L174.086 31.58L178.206 37H175.146L172.006 32.84H171.146V37H168.466ZM183.817 39.54V34.66H184.097C184.364 34.66 184.61 34.5867 184.837 34.44C185.077 34.2933 185.284 34.0467 185.457 33.7C185.644 33.34 185.79 32.8467 185.897 32.22C186.017 31.5933 186.097 30.7933 186.137 29.82L186.257 26.52H194.117V34.66H195.577V39.54H193.237V37H186.177V39.54H183.817ZM187.477 34.66H191.437V28.78H188.597L188.537 30.08C188.497 30.96 188.43 31.7067 188.337 32.32C188.257 32.92 188.144 33.4133 187.997 33.8C187.864 34.1733 187.69 34.46 187.477 34.66ZM196.554 37.14V34.76C196.874 34.7467 197.16 34.6667 197.414 34.52C197.667 34.3733 197.887 34.1267 198.074 33.78C198.274 33.42 198.427 32.92 198.534 32.28C198.654 31.64 198.734 30.82 198.774 29.82L198.914 26.52H206.774V37H204.094V28.86H201.274L201.234 30.08C201.18 31.4533 201.047 32.5933 200.834 33.5C200.62 34.4067 200.32 35.1267 199.934 35.66C199.56 36.18 199.094 36.5533 198.534 36.78C197.974 37.0067 197.314 37.1267 196.554 37.14ZM208.648 37L211.308 32.92C210.682 32.7467 210.182 32.4067 209.808 31.9C209.448 31.3933 209.268 30.7267 209.268 29.9C209.268 29.2067 209.428 28.6067 209.748 28.1C210.068 27.5933 210.508 27.2 211.068 26.92C211.628 26.6267 212.275 26.48 213.008 26.48H217.988V37H215.308V33.38H213.888L211.588 37H208.648ZM213.328 31.46H215.308V28.54H213.428C212.948 28.54 212.568 28.6733 212.288 28.94C212.008 29.2067 211.868 29.5533 211.868 29.98C211.868 30.4067 211.988 30.76 212.228 31.04C212.482 31.32 212.848 31.46 213.328 31.46ZM226.237 41.52C225.957 41.52 225.67 41.4867 225.377 41.42C225.097 41.3533 224.77 41.2533 224.397 41.12L224.917 39C225.117 39.0933 225.304 39.16 225.477 39.2C225.664 39.24 225.83 39.26 225.977 39.26C226.31 39.26 226.604 39.14 226.857 38.9C227.124 38.66 227.337 38.2933 227.497 37.8L227.817 36.94L223.577 26.52H226.357L229.177 34.26L231.657 26.52H234.217L229.937 38.5C229.71 39.14 229.41 39.68 229.037 40.12C228.664 40.5733 228.237 40.92 227.757 41.16C227.277 41.4 226.77 41.52 226.237 41.52ZM241.513 37V33.24C241.113 33.4133 240.706 33.54 240.293 33.62C239.893 33.7 239.433 33.74 238.913 33.74C237.806 33.74 236.94 33.4467 236.313 32.86C235.686 32.26 235.373 31.3867 235.373 30.24V26.52H238.053V29.88C238.053 30.5067 238.186 30.9667 238.453 31.26C238.733 31.5533 239.16 31.7 239.733 31.7C240.053 31.7 240.373 31.6667 240.693 31.6C241.013 31.5333 241.286 31.44 241.513 31.32V26.52H244.213V37H241.513ZM245.93 33.9C245.93 33.22 246.116 32.6267 246.49 32.12C246.876 31.6 247.41 31.2 248.09 30.92C248.77 30.64 249.55 30.5 250.43 30.5C250.87 30.5 251.316 30.5333 251.77 30.6C252.223 30.6667 252.616 30.7733 252.95 30.92V30.36C252.95 29.6933 252.75 29.18 252.35 28.82C251.963 28.46 251.383 28.28 250.61 28.28C250.036 28.28 249.49 28.38 248.97 28.58C248.45 28.78 247.903 29.0733 247.33 29.46L246.47 27.7C247.163 27.2467 247.87 26.9067 248.59 26.68C249.323 26.4533 250.09 26.34 250.89 26.34C252.383 26.34 253.543 26.7133 254.37 27.46C255.21 28.2067 255.63 29.2733 255.63 30.66V34C255.63 34.28 255.676 34.48 255.77 34.6C255.876 34.72 256.043 34.7933 256.27 34.82V37C256.03 37.04 255.81 37.0733 255.61 37.1C255.423 37.1267 255.263 37.14 255.13 37.14C254.596 37.14 254.19 37.02 253.91 36.78C253.643 36.54 253.476 36.2467 253.41 35.9L253.35 35.36C252.896 35.9467 252.33 36.4 251.65 36.72C250.97 37.04 250.276 37.2 249.57 37.2C248.876 37.2 248.25 37.06 247.69 36.78C247.143 36.4867 246.71 36.0933 246.39 35.6C246.083 35.0933 245.93 34.5267 245.93 33.9ZM252.45 34.44C252.596 34.28 252.716 34.12 252.81 33.96C252.903 33.8 252.95 33.6533 252.95 33.52V32.46C252.63 32.3267 252.283 32.2267 251.91 32.16C251.536 32.08 251.183 32.04 250.85 32.04C250.156 32.04 249.583 32.1933 249.13 32.5C248.69 32.7933 248.47 33.1867 248.47 33.68C248.47 33.9467 248.543 34.2 248.69 34.44C248.836 34.68 249.05 34.8733 249.33 35.02C249.61 35.1667 249.943 35.24 250.33 35.24C250.73 35.24 251.123 35.1667 251.51 35.02C251.896 34.86 252.21 34.6667 252.45 34.44ZM263.014 37.2C262.161 37.2 261.394 37.06 260.714 36.78C260.034 36.4867 259.454 36.0867 258.974 35.58C258.494 35.06 258.121 34.4733 257.854 33.82C257.601 33.1667 257.474 32.48 257.474 31.76C257.474 30.7733 257.694 29.8733 258.134 29.06C258.587 28.2333 259.227 27.5733 260.054 27.08C260.881 26.5867 261.861 26.34 262.994 26.34C264.127 26.34 265.101 26.5867 265.914 27.08C266.727 27.5733 267.334 28.22 267.734 29.02L265.114 29.82C264.887 29.4333 264.587 29.14 264.214 28.94C263.841 28.7267 263.427 28.62 262.974 28.62C262.467 28.62 262.001 28.7533 261.574 29.02C261.161 29.2733 260.834 29.64 260.594 30.12C260.354 30.5867 260.234 31.1333 260.234 31.76C260.234 32.3733 260.354 32.92 260.594 33.4C260.847 33.8667 261.181 34.24 261.594 34.52C262.007 34.7867 262.467 34.92 262.974 34.92C263.294 34.92 263.594 34.8667 263.874 34.76C264.167 34.6533 264.427 34.5067 264.654 34.32C264.881 34.1333 265.047 33.92 265.154 33.68L267.774 34.48C267.534 35 267.181 35.4667 266.714 35.88C266.261 36.2933 265.721 36.62 265.094 36.86C264.481 37.0867 263.787 37.2 263.014 37.2ZM271.843 37V28.86H268.523V26.52H277.863V28.86H274.523V37H271.843ZM279.365 37V26.54H282.045V33.42L286.745 26.52H289.185V37H286.505V30.28L281.865 37H279.365ZM291.07 37L293.73 32.92C293.103 32.7467 292.603 32.4067 292.23 31.9C291.87 31.3933 291.69 30.7267 291.69 29.9C291.69 29.2067 291.85 28.6067 292.17 28.1C292.49 27.5933 292.93 27.2 293.49 26.92C294.05 26.6267 294.697 26.48 295.43 26.48H300.41V37H297.73V33.38H296.31L294.01 37H291.07ZM295.75 31.46H297.73V28.54H295.85C295.37 28.54 294.99 28.6733 294.71 28.94C294.43 29.2067 294.29 29.5533 294.29 29.98C294.29 30.4067 294.41 30.76 294.65 31.04C294.903 31.32 295.27 31.46 295.75 31.46ZM307.646 37V26.52H313.486C314.206 26.52 314.786 26.64 315.226 26.88C315.679 27.12 316.012 27.4333 316.226 27.82C316.439 28.2067 316.546 28.62 316.546 29.06C316.546 29.6467 316.412 30.16 316.146 30.6C315.892 31.04 315.492 31.38 314.946 31.62C315.559 31.7933 316.059 32.0933 316.446 32.52C316.832 32.9333 317.026 33.48 317.026 34.16C317.026 34.8133 316.872 35.3533 316.566 35.78C316.259 36.1933 315.819 36.5 315.246 36.7C314.672 36.9 313.992 37 313.206 37H307.646ZM310.186 35.18H313.126C313.366 35.18 313.586 35.12 313.786 35C313.986 34.88 314.139 34.72 314.246 34.52C314.366 34.32 314.426 34.1 314.426 33.86C314.426 33.6067 314.372 33.3867 314.266 33.2C314.159 33 314.006 32.8467 313.806 32.74C313.619 32.62 313.399 32.56 313.146 32.56H310.186V35.18ZM310.186 30.88H312.806C313.046 30.88 313.259 30.82 313.446 30.7C313.632 30.58 313.772 30.42 313.866 30.22C313.972 30.02 314.026 29.8 314.026 29.56C314.026 29.2133 313.912 28.9267 313.686 28.7C313.472 28.46 313.186 28.34 312.826 28.34H310.186V30.88ZM323.059 33.9C323.059 33.22 323.245 32.6267 323.619 32.12C324.005 31.6 324.539 31.2 325.219 30.92C325.899 30.64 326.679 30.5 327.559 30.5C327.999 30.5 328.445 30.5333 328.899 30.6C329.352 30.6667 329.745 30.7733 330.079 30.92V30.36C330.079 29.6933 329.879 29.18 329.479 28.82C329.092 28.46 328.512 28.28 327.739 28.28C327.165 28.28 326.619 28.38 326.099 28.58C325.579 28.78 325.032 29.0733 324.459 29.46L323.599 27.7C324.292 27.2467 324.999 26.9067 325.719 26.68C326.452 26.4533 327.219 26.34 328.019 26.34C329.512 26.34 330.672 26.7133 331.499 27.46C332.339 28.2067 332.759 29.2733 332.759 30.66V34C332.759 34.28 332.805 34.48 332.899 34.6C333.005 34.72 333.172 34.7933 333.399 34.82V37C333.159 37.04 332.939 37.0733 332.739 37.1C332.552 37.1267 332.392 37.14 332.259 37.14C331.725 37.14 331.319 37.02 331.039 36.78C330.772 36.54 330.605 36.2467 330.539 35.9L330.479 35.36C330.025 35.9467 329.459 36.4 328.779 36.72C328.099 37.04 327.405 37.2 326.699 37.2C326.005 37.2 325.379 37.06 324.819 36.78C324.272 36.4867 323.839 36.0933 323.519 35.6C323.212 35.0933 323.059 34.5267 323.059 33.9ZM329.579 34.44C329.725 34.28 329.845 34.12 329.939 33.96C330.032 33.8 330.079 33.6533 330.079 33.52V32.46C329.759 32.3267 329.412 32.2267 329.039 32.16C328.665 32.08 328.312 32.04 327.979 32.04C327.285 32.04 326.712 32.1933 326.259 32.5C325.819 32.7933 325.599 33.1867 325.599 33.68C325.599 33.9467 325.672 34.2 325.819 34.44C325.965 34.68 326.179 34.8733 326.459 35.02C326.739 35.1667 327.072 35.24 327.459 35.24C327.859 35.24 328.252 35.1667 328.639 35.02C329.025 34.86 329.339 34.6667 329.579 34.44ZM335.263 37V26.52H337.943V30.48H338.843L341.683 26.52H344.603L340.883 31.58L345.003 37H341.943L338.803 32.84H337.943V37H335.263ZM354.829 39.54V37H346.669V26.52H349.349V34.66H353.029V26.52H355.709V34.66H357.189V39.54H354.829ZM358.935 37V26.54H361.615V33.42L366.315 26.52H368.755V37H366.075V30.28L361.435 37H358.935ZM371.2 37V26.54H373.88V33.42L378.58 26.52H381.02V37H378.34V30.28L373.7 37H371.2Z" fill="white"/>
</svg>
