<svg width="80" height="80" viewBox="0 0 80 80" fill="none" xmlns="http://www.w3.org/2000/svg">
<circle cx="40" cy="40" r="40" fill="#5A6DED"/>
<path fill-rule="evenodd" clip-rule="evenodd" d="M60 33.0645C60 38.9785 55.7448 43.8986 50.129 44.9301V55L47.1129 51.6539L44.0968 55L41.0806 51.6539L38.0645 55L35.0484 51.6539L32.0323 55L29.0161 51.6539L26 55V33.585C26.4022 30.9081 28.4129 28.6774 30.8258 28.6774H36.6934C38.4484 24.1835 42.8202 21 47.9355 21C54.5985 21 60 26.4015 60 33.0645ZM30.8258 31.912H35.9253C35.8894 32.2913 35.871 32.6758 35.871 33.0645C35.871 33.8136 35.9392 34.5468 36.0699 35.2581H32.3339V36.9311H36.5039C36.6995 37.5097 36.9379 38.0686 37.2152 38.6042H32.3339V40.2772H38.2635C38.6818 40.8372 39.1476 41.3597 39.655 41.8387H32.3339V43.5118H41.8976C43.5598 44.4745 45.473 45.0519 47.5151 45.1218V46.8578L44.4989 50.2039L41.4828 46.8578L38.4667 50.2039L35.4505 46.8578L32.4344 50.2039L29.4183 46.8578V43.5118V33.585C29.4183 32.6927 30.0215 32.0235 30.8258 31.912ZM46.8387 26.4839H49.0323V31.9677H54.5161V34.1613H49.0323V39.6452H46.8387V34.1613H41.3548V31.9677H46.8387V26.4839Z" fill="white"/>
</svg>
