<svg width="36" height="36" viewBox="0 0 36 36" fill="none" xmlns="http://www.w3.org/2000/svg">
<path fill-rule="evenodd" clip-rule="evenodd" d="M12.2 13.65H6.39995C5.52995 13.65 4.94995 13.07 4.94995 12.2V6.39998C4.94995 5.52998 5.52995 4.94998 6.39995 4.94998H12.2C13.07 4.94998 13.65 5.52998 13.65 6.39998V12.2C13.65 13.07 13.07 13.65 12.2 13.65Z" stroke="#5A6DED" stroke-width="2" stroke-linecap="round" stroke-linejoin="round"/>
<path fill-rule="evenodd" clip-rule="evenodd" d="M12.2 31.05H6.39995C5.52995 31.05 4.94995 30.47 4.94995 29.6V23.8C4.94995 22.93 5.52995 22.35 6.39995 22.35H12.2C13.07 22.35 13.65 22.93 13.65 23.8V29.6C13.65 30.47 13.07 31.05 12.2 31.05Z" stroke="#5A6DED" stroke-width="2" stroke-linecap="round" stroke-linejoin="round"/>
<path fill-rule="evenodd" clip-rule="evenodd" d="M29.6 13.65H23.8C22.93 13.65 22.35 13.07 22.35 12.2V6.39998C22.35 5.52998 22.93 4.94998 23.8 4.94998H29.6C30.47 4.94998 31.05 5.52998 31.05 6.39998V12.2C31.05 13.07 30.47 13.65 29.6 13.65Z" stroke="#5A6DED" stroke-width="2" stroke-linecap="round" stroke-linejoin="round"/>
<path d="M10.75 18H13.65" stroke="#5A6DED" stroke-width="2" stroke-linecap="round" stroke-linejoin="round"/>
<path d="M18 7.84999V4.94998" stroke="#5A6DED" stroke-width="2" stroke-linecap="round" stroke-linejoin="round"/>
<path d="M23.8 18H19.45C18.58 18 18 17.42 18 16.55V13.65" stroke="#5A6DED" stroke-width="2" stroke-linecap="round" stroke-linejoin="round"/>
<path d="M6.39995 18H4.94995" stroke="#5A6DED" stroke-width="2" stroke-linecap="round" stroke-linejoin="round"/>
<path d="M22.35 26.7H19.45C18.58 26.7 18 27.28 18 28.15V31.05" stroke="#5A6DED" stroke-width="2" stroke-linecap="round" stroke-linejoin="round"/>
<path d="M18 22.35H26.7" stroke="#5A6DED" stroke-width="2" stroke-linecap="round" stroke-linejoin="round"/>
<path d="M31.05 22.35V29.6C31.05 30.47 30.47 31.05 29.6 31.05H22.35" stroke="#5A6DED" stroke-width="2" stroke-linecap="round" stroke-linejoin="round"/>
</svg>
