<svg width="34" height="34" viewBox="0 0 34 34" fill="none" xmlns="http://www.w3.org/2000/svg">
<path d="M11.333 9.91666H16.9997" stroke="#5A6DED" stroke-width="3" stroke-linecap="round" stroke-linejoin="round"/>
<path d="M11.333 15.5833H16.9997" stroke="#5A6DED" stroke-width="3" stroke-linecap="round" stroke-linejoin="round"/>
<path d="M11.333 21.25H16.9997" stroke="#5A6DED" stroke-width="3" stroke-linecap="round" stroke-linejoin="round"/>
<path d="M16.7164 29.6083L12.0415 27.2C11.6165 27.0583 11.1914 27.0583 10.7664 27.2L6.7997 29.1833C6.3747 29.4667 5.80811 29.0417 5.80811 28.6167V5.66667C5.80811 4.81667 6.37477 4.25 7.22477 4.25H27.0581C27.9081 4.25 28.4748 4.81667 28.4748 5.66667V28.6167C28.4748 29.1833 27.908 29.4667 27.483 29.1833L23.5164 27.2C23.0914 27.0583 22.6664 27.0583 22.2414 27.2L17.5663 29.6083C17.1413 29.75 16.9997 29.75 16.7164 29.6083Z" stroke="#5A6DED" stroke-width="3" stroke-linecap="round" stroke-linejoin="round"/>
</svg>
